<svg width="108" height="47" viewBox="0 0 108 47" fill="none" xmlns="http://www.w3.org/2000/svg">
<path d="M42.7178 29.1882C41.3823 29.1946 40.0469 29.1978 38.7082 29.201C38.0709 29.201 37.2639 29.201 36.6265 29.2042C36.9244 29.0793 37.5329 28.7751 38.0197 28.1185C38.7082 27.193 38.6858 26.197 38.6698 25.9024C38.6634 25.5277 38.6602 25.1498 38.6538 24.7751C38.6474 24.1506 38.6377 23.5261 38.6313 22.9048H38.2182C37.504 22.9048 36.8827 23.0617 36.3575 23.382C36.0309 23.5837 35.8195 23.7919 35.7715 23.8399C35.163 24.4612 35.0029 25.2394 34.9036 25.7166C34.8651 25.9088 34.8427 26.0721 34.8299 26.181C34.7531 26.5397 34.5161 27.3884 33.7667 28.1153C32.6682 29.1818 31.2943 29.1882 31.0061 29.185V32.3875H34.8267V41.0152C34.8267 41.0632 34.8267 41.1017 34.8331 41.1433C34.8555 42.1329 35.163 42.9207 35.7619 43.526C36.3896 44.1537 37.2094 44.4675 38.215 44.4675H42.5288V41.2586H39.5697C39.0285 41.2586 38.7434 40.9864 38.7146 40.4515C38.7082 40.4163 38.7082 40.3811 38.7082 40.3427V32.3907H42.8939C42.8363 31.3243 42.7786 30.2546 42.721 29.1882H42.7178Z" fill="#FC004E"/>
<path d="M8.12996 6.30261C9.1868 5.9023 9.59993 5.37388 9.77607 4.95434C10.0131 4.39069 9.92659 3.75659 10.4102 3.40111C10.6247 3.25059 10.8649 3.20895 11.0251 3.20255H13.6768V0H9.67039C8.95622 0 8.33493 0.156925 7.80971 0.47718C7.50867 0.656522 7.31011 0.848675 7.22364 0.935144C6.64078 1.52121 6.44542 2.19695 6.36856 2.53962C6.36856 2.80223 6.31732 4.1441 5.21885 5.21375C4.06913 6.33144 2.644 6.29621 2.4006 6.2834V9.48595H6.28529V21.566H10.17V9.48595H14.1764V6.2834C12.1652 6.2898 10.1476 6.29621 8.13637 6.29941L8.12996 6.30261Z" fill="#FC004E"/>
<path d="M30.0665 15.0835C30.6429 15.0963 31.2226 15.1124 31.8022 15.1284C32.3851 15.1444 32.9648 15.1604 33.5412 15.1764C33.5957 14.9971 33.6629 14.6864 33.6181 14.3053C33.5476 13.7192 33.253 13.3381 33.1954 13.2677C32.7278 12.6816 32.0681 12.5631 31.8983 12.5375L30.0729 12.4158C30.0729 12.2012 30.0665 11.9899 30.0665 11.7753V11.7337C30.0665 11.2117 30.0152 8.96026 28.3051 7.35578C26.7807 5.92424 24.8623 5.85059 23.5333 5.85059C22.2042 5.85059 21.1025 6.04914 20.1898 6.44946C19.2771 6.84978 18.5437 7.375 18.0025 8.01871C17.4548 8.66883 17.0609 9.37979 16.8175 10.1644L20.3884 11.3622C20.5325 10.664 20.8431 10.094 21.3139 9.65201C21.7911 9.21006 22.5053 8.98908 23.4692 8.98908C24.4332 8.98908 25.1794 9.22287 25.6245 9.68724C26.0793 10.1452 26.3035 10.7409 26.3035 11.455V12.3197H22.1113C20.9616 12.3197 19.9432 12.4991 19.0465 12.8546C18.1498 13.2164 17.4548 13.7513 16.9488 14.459C16.4492 15.1668 16.1994 16.0475 16.1994 17.0915C16.1994 18.1356 16.4492 19.0259 16.9488 19.7593C17.4548 20.4862 18.1338 21.0435 19.0017 21.4214C19.8631 21.7993 20.8399 21.9914 21.9256 21.9914C23.0113 21.9914 23.8375 21.8345 24.4556 21.5271C25.0705 21.2196 25.5253 20.8641 25.8103 20.4702C26.1017 20.0699 26.2811 19.7432 26.3675 19.4998H26.9504V19.5287C26.9504 20.1436 27.2002 20.64 27.6902 21.005C28.1834 21.3765 28.8111 21.5623 29.5733 21.5623H32.1609V18.3533H30.9279C30.6621 18.3533 30.4572 18.2893 30.3131 18.1548C30.0056 17.8697 30.0633 17.463 30.0697 17.4342V15.0803L30.0665 15.0835ZM26.3067 15.5255C26.3067 16.5311 25.964 17.3381 25.2723 17.9434C24.5869 18.5487 23.6966 18.8497 22.6109 18.8497C21.7911 18.8497 21.1634 18.6768 20.7342 18.3277C20.2987 17.9786 20.0841 17.5271 20.0841 16.973C20.0841 16.419 20.2923 15.9834 20.699 15.676C21.1121 15.3686 21.6758 15.218 22.3964 15.218H26.3099V15.5255H26.3067Z" fill="#FC004E"/>
<path d="M56.4248 8.45753C55.9605 7.64408 55.3424 7.0388 54.577 6.63848C53.8051 6.23817 52.9501 6.0332 52.0021 6.0332C50.8332 6.0332 49.9269 6.25418 49.2928 6.68332C48.6522 7.11246 48.1591 7.6601 47.81 8.31662H47.2591C46.9101 7.63768 46.4041 7.09004 45.7475 6.66731C45.091 6.24777 44.2199 6.0332 43.1311 6.0332C42.1255 6.0332 41.312 6.22536 40.6939 6.60966C40.079 6.98756 39.6371 7.43592 39.3681 7.94512H38.8172V6.283H34.9934V21.5656H38.8781V12.5376C38.8781 11.4903 39.1215 10.6833 39.605 10.1197C40.0886 9.55601 40.7676 9.27098 41.6515 9.27098C42.4361 9.27098 43.0414 9.47914 43.4705 9.90508C43.8997 10.3246 44.1142 10.9587 44.1142 11.801V21.5656H47.9989V12.5376C47.9989 11.4903 48.2423 10.6833 48.7259 10.1197C49.2095 9.55601 49.8884 9.27098 50.7723 9.27098C51.5506 9.27098 52.1622 9.47914 52.5914 9.90508C53.0205 10.3246 53.2351 10.9587 53.2351 11.801V21.5656H57.1198V11.5192C57.1198 10.2862 56.886 9.26457 56.428 8.45433L56.4248 8.45753Z" fill="#FC004E"/>
<path d="M76.2994 13.9338C76.2417 13.1076 76.1264 12.4062 75.9503 11.8233L72.5332 12.8866C72.7477 13.4855 72.847 14.1292 72.8182 14.8273C72.7894 15.5255 72.389 16.2589 71.614 17.0243C70.8646 17.7801 69.9935 18.1868 69.004 18.2445C68.0144 18.3021 67.1369 17.9754 66.3651 17.2677L74.2305 9.40222L73.2954 8.46708C72.1905 7.3622 71.0055 6.6064 69.7309 6.21249C68.4627 5.81217 67.1977 5.76413 65.9423 6.07798C64.6869 6.39183 63.5308 7.07717 62.4708 8.13722C61.3947 9.21327 60.6741 10.3854 60.3186 11.66C59.9632 12.9282 59.9824 14.206 60.3667 15.4903C60.751 16.7745 61.5132 17.9851 62.6405 19.1188L62.9031 19.3814C64.0368 20.5151 65.2506 21.2709 66.5412 21.6488C67.8382 22.0267 69.1224 22.0331 70.4003 21.6712C71.6749 21.3061 72.8534 20.5855 73.9295 19.5159C74.9191 18.5263 75.5756 17.5559 75.899 16.6048C76.2257 15.6568 76.357 14.7665 76.2994 13.937V13.9338ZM63.6461 12.8866C63.7037 12.0731 64.1041 11.2981 64.8438 10.5551C65.5516 9.84738 66.3202 9.45667 67.1401 9.39262C67.9663 9.32856 68.7157 9.57836 69.3947 10.142L64.3442 15.1988C63.8222 14.4719 63.5884 13.7 63.6461 12.8866Z" fill="#FC004E"/>
<path d="M60.6397 32.3619C59.9415 31.1866 58.9904 30.2995 57.7734 29.6814C56.5628 29.0665 55.1985 28.7559 53.6741 28.7559C52.1497 28.7559 50.7918 29.0633 49.5749 29.6814C48.3643 30.2963 47.4131 31.1866 46.715 32.3619C46.0104 33.5309 45.6613 34.9368 45.6613 36.5829V37.0761C45.6613 38.7158 46.0104 40.1217 46.715 41.297C47.4131 42.466 48.3643 43.3595 49.5749 43.9776C50.7886 44.5925 52.1561 44.9031 53.6741 44.9031C55.1921 44.9031 56.5628 44.5957 57.7734 43.9776C58.9872 43.3627 59.9415 42.466 60.6397 41.297C61.3378 40.1217 61.6869 38.7158 61.6869 37.0761V36.5829C61.6869 34.9368 61.3378 33.5309 60.6397 32.3619ZM60.6621 36.759C56.3258 38.2226 55.1409 39.4075 53.6773 43.7438C52.2138 39.4075 51.0288 38.2226 46.6926 36.759C51.0288 35.2955 52.2138 34.1105 53.6773 29.7743C55.1409 34.1105 56.3258 35.2955 60.6621 36.759Z" fill="#FC004E"/>
<path d="M79.3126 32.0067C78.8194 31.0523 78.1277 30.3029 77.231 29.7585C76.3342 29.2109 75.2966 28.9386 74.1021 28.9386C72.725 28.9386 71.7002 29.182 71.0212 29.6656C70.3455 30.1492 69.8811 30.6584 69.6377 31.19H69.0805V29.1916H65.2598V44.4742H69.1445V36.708C69.1445 35.2893 69.4712 34.1844 70.1277 33.3934C70.7906 32.6024 71.7162 32.2084 72.9011 32.2084C73.9547 32.2084 74.7554 32.4999 75.3254 33.0731C75.8891 33.6496 76.1677 34.5079 76.1677 35.6608V44.4742H80.0524V35.3533C80.0524 34.0787 79.809 32.9642 79.3126 32.0099V32.0067Z" fill="#FC004E"/>
<path d="M84.2416 29.1876V44.4702H88.1263V29.1876H84.2416Z" fill="#FC004E"/>
<path d="M103.281 34.908C103.86 35.7246 104.152 36.5605 104.152 37.4156C104.152 38.2706 103.735 39.1129 102.906 39.9424C102.355 40.4932 101.737 40.8711 101.055 41.0761C100.376 41.2778 99.6682 41.2682 98.9412 41.0504C98.2142 40.8327 97.5097 40.3843 96.8275 39.7022L96.6097 39.4844C95.9276 38.8023 95.476 38.0945 95.2583 37.3675C95.0437 36.6437 95.0373 35.936 95.2391 35.2602C95.4408 34.5749 95.8187 33.9568 96.3696 33.406C96.9236 32.8519 97.4872 32.4932 98.0637 32.3299C98.6338 32.1602 99.1974 32.1506 99.7482 32.2979C100.302 32.442 100.824 32.7014 101.317 33.0793L103.406 29.8575C102.464 29.2042 101.449 28.7879 100.357 28.6149C99.2711 28.442 98.1726 28.5445 97.0677 28.9192C95.966 29.2971 94.8964 30.0049 93.8652 31.0361C92.8211 32.0801 92.0942 33.2426 91.6778 34.5301C91.2615 35.8175 91.2231 37.1145 91.5593 38.4404C91.8892 39.763 92.645 41.012 93.8203 42.1906L94.1246 42.4948C95.3031 43.6733 96.5489 44.4259 97.878 44.759C99.1974 45.0921 100.501 45.0536 101.788 44.6405C103.076 44.2274 104.238 43.4972 105.282 42.4532C106.326 41.4091 107.021 40.3523 107.396 39.2474C107.774 38.1457 107.876 37.0473 107.7 35.9584C107.53 34.8695 107.149 33.8447 106.57 32.8872L103.281 34.908Z" fill="#FC004E"/>
<path d="M89.0552 24.9513C87.2713 25.5534 86.7845 26.0402 86.1825 27.824C85.5804 26.0402 85.0936 25.5534 83.3098 24.9513C85.0936 24.3492 85.5804 23.8624 86.1825 22.0786C86.7845 23.8624 87.2713 24.3492 89.0552 24.9513Z" fill="#FC004E"/>
<path d="M40.3172 30.2769C38.9817 30.2833 37.6463 30.2865 36.3076 30.2897C35.6703 30.2897 34.8632 30.2897 34.2259 30.2929C34.5238 30.168 35.1323 29.8638 35.619 29.2073C36.3076 28.2817 36.2852 27.2858 36.2692 26.9911C36.2628 26.6164 36.2596 26.2385 36.2532 25.8638C36.2467 25.2393 36.2371 24.6148 36.2307 23.9935H35.8176C35.1034 23.9935 34.4821 24.1505 33.9569 24.4707C33.6303 24.6725 33.4189 24.8806 33.3709 24.9287C32.7624 25.55 32.6022 26.3282 32.503 26.8054C32.4645 26.9975 32.4421 27.1609 32.4293 27.2697C32.3524 27.6284 32.1155 28.4771 31.3661 29.2041C30.2676 30.2705 28.8937 30.2769 28.6055 30.2737V33.4763H32.4261V42.1039C32.4261 42.152 32.4261 42.1904 32.4325 42.232C32.4549 43.2216 32.7624 44.0095 33.3613 44.6147C33.989 45.2424 34.8088 45.5563 35.8144 45.5563H40.1282V42.3473H37.1691C36.6279 42.3473 36.3428 42.0751 36.314 41.5403C36.3076 41.5051 36.3076 41.4698 36.3076 41.4314V33.4795H40.4933C40.4357 32.413 40.378 31.3434 40.3204 30.2769H40.3172Z" fill="#00E7F9"/>
<path d="M5.72936 7.39185C6.7862 6.99153 7.19933 6.46311 7.37547 6.04358C7.61246 5.47993 7.52599 4.84582 8.00957 4.49034C8.22414 4.33982 8.46434 4.29819 8.62446 4.29178H11.2762V1.08923H7.26978C6.55562 1.08923 5.93432 1.24616 5.4091 1.56641C5.10806 1.74576 4.90951 1.93791 4.82304 2.02438C4.24017 2.61044 4.04482 3.28618 3.96796 3.62885C3.96796 3.89146 3.91672 5.23333 2.81824 6.30298C1.66853 7.42067 0.243394 7.38544 0 7.37263V10.5752H3.88469V22.6552H7.76938V10.5752H11.7758V7.37263C9.76457 7.37904 7.74696 7.38544 5.73576 7.38865L5.72936 7.39185Z" fill="#00E7F9"/>
<path d="M27.6659 16.1728C28.2423 16.1856 28.822 16.2016 29.4016 16.2176C29.9845 16.2336 30.5642 16.2496 31.1406 16.2656C31.1951 16.0863 31.2623 15.7757 31.2175 15.3945C31.147 14.8085 30.8524 14.4274 30.7947 14.3569C30.3272 13.7709 29.6675 13.6524 29.4977 13.6267L27.6723 13.505C27.6723 13.2905 27.6659 13.0791 27.6659 12.8645V12.8229C27.6659 12.3009 27.6146 10.0495 25.9045 8.44502C24.38 7.01348 22.4617 6.93982 21.1327 6.93982C19.8036 6.93982 18.7019 7.13838 17.7892 7.5387C16.8765 7.93901 16.1431 8.46423 15.6019 9.10794C15.0542 9.75806 14.6603 10.469 14.4169 11.2537L17.9878 12.4514C18.1319 11.7532 18.4425 11.1832 18.9133 10.7412C19.3905 10.2993 20.1046 10.0783 21.0686 10.0783C22.0326 10.0783 22.7788 10.3121 23.2239 10.7765C23.6787 11.2344 23.9029 11.8301 23.9029 12.5443V13.409H19.7107C18.561 13.409 17.5426 13.5883 16.6459 13.9438C15.7492 14.3057 15.0542 14.8405 14.5482 15.5483C14.0486 16.256 13.7988 17.1367 13.7988 18.1808C13.7988 19.2248 14.0486 20.1151 14.5482 20.8485C15.0542 21.5755 15.7332 22.1327 16.6011 22.5106C17.4625 22.8885 18.4393 23.0807 19.525 23.0807C20.6106 23.0807 21.4369 22.9237 22.055 22.6163C22.6699 22.3089 23.1246 21.9534 23.4097 21.5595C23.7011 21.1591 23.8804 20.8325 23.9669 20.5891H24.5498V20.6179C24.5498 21.2328 24.7996 21.7292 25.2896 22.0943C25.7828 22.4658 26.4105 22.6515 27.1727 22.6515H29.7603V19.4426H28.5273C28.2615 19.4426 28.0566 19.3785 27.9125 19.244C27.605 18.959 27.6627 18.5523 27.6691 18.5234V16.1696L27.6659 16.1728ZM23.9061 16.6147C23.9061 17.6203 23.5634 18.4274 22.8716 19.0326C22.1863 19.6379 21.296 19.939 20.2103 19.939C19.3905 19.939 18.7628 19.766 18.3336 19.4169C17.8981 19.0679 17.6835 18.6163 17.6835 18.0623C17.6835 17.5082 17.8917 17.0727 18.2984 16.7652C18.7115 16.4578 19.2752 16.3073 19.9958 16.3073H23.9093V16.6147H23.9061Z" fill="#00E7F9"/>
<path d="M54.0242 9.54677C53.5599 8.73332 52.9418 8.12804 52.1764 7.72772C51.4045 7.3274 50.5495 7.12244 49.6015 7.12244C48.4326 7.12244 47.5263 7.34341 46.8921 7.77255C46.2516 8.2017 45.7584 8.74933 45.4094 9.40585H44.8585C44.5095 8.72691 44.0035 8.17928 43.3469 7.75654C42.6904 7.33701 41.8193 7.12244 40.7304 7.12244C39.7248 7.12244 38.9114 7.31459 38.2933 7.6989C37.6784 8.0768 37.2365 8.52515 36.9675 9.03436H36.4166V7.37224H32.5928V22.6548H36.4775V13.6268C36.4775 12.5796 36.7209 11.7725 37.2044 11.2089C37.688 10.6452 38.367 10.3602 39.2509 10.3602C40.0355 10.3602 40.6408 10.5684 41.0699 10.9943C41.4991 11.4139 41.7136 12.048 41.7136 12.8902V22.6548H45.5983V13.6268C45.5983 12.5796 45.8417 11.7725 46.3253 11.2089C46.8089 10.6452 47.4878 10.3602 48.3717 10.3602C49.1499 10.3602 49.7616 10.5684 50.1908 10.9943C50.6199 11.4139 50.8345 12.048 50.8345 12.8902V22.6548H54.7192V12.6084C54.7192 11.3754 54.4854 10.3538 54.0274 9.54356L54.0242 9.54677Z" fill="#00E7F9"/>
<path d="M73.8988 15.0231C73.8411 14.1968 73.7258 13.4954 73.5497 12.9126L70.1326 13.9758C70.3471 14.5747 70.4464 15.2184 70.4176 15.9166C70.3888 16.6147 69.9884 17.3481 69.2134 18.1135C68.464 18.8693 67.5929 19.276 66.6033 19.3337C65.6138 19.3913 64.7363 19.0647 63.9645 18.3569L71.8299 10.4915L70.8948 9.55631C69.7899 8.45143 68.6049 7.69563 67.3303 7.30172C66.0621 6.9014 64.7971 6.85336 63.5417 7.16721C62.2863 7.48106 61.1302 8.16641 60.0702 9.22645C58.9941 10.3025 58.2735 11.4746 57.918 12.7493C57.5626 14.0175 57.5818 15.2953 57.9661 16.5795C58.3504 17.8637 59.1126 19.0743 60.2399 20.208L60.5025 20.4706C61.6362 21.6043 62.85 22.3601 64.1406 22.738C65.4376 23.1159 66.7218 23.1223 67.9997 22.7604C69.2743 22.3953 70.4528 21.6748 71.5289 20.6051C72.5185 19.6155 73.175 18.6451 73.4984 17.694C73.8251 16.746 73.9564 15.8557 73.8988 15.0263V15.0231ZM61.2455 13.9758C61.3031 13.1624 61.7035 12.3874 62.4432 11.6444C63.151 10.9366 63.9196 10.5459 64.7395 10.4818C65.5657 10.4178 66.3151 10.6676 66.9941 11.2312L61.9436 16.2881C61.4216 15.5611 61.1878 14.7893 61.2455 13.9758Z" fill="#00E7F9"/>
<path d="M58.2391 33.4512C57.5409 32.2758 56.5897 31.3887 55.3728 30.7706C54.1622 30.1557 52.7979 29.8451 51.2735 29.8451C49.7491 29.8451 48.3912 30.1525 47.1743 30.7706C45.9637 31.3855 45.0125 32.2758 44.3144 33.4512C43.6098 34.6201 43.2607 36.026 43.2607 37.6721V38.1653C43.2607 39.805 43.6098 41.2109 44.3144 42.3863C45.0125 43.5552 45.9637 44.4487 47.1743 45.0668C48.388 45.6817 49.7555 45.9923 51.2735 45.9923C52.7915 45.9923 54.1622 45.6849 55.3728 45.0668C56.5865 44.4519 57.5409 43.5552 58.2391 42.3863C58.9372 41.2109 59.2863 39.805 59.2863 38.1653V37.6721C59.2863 36.026 58.9372 34.6201 58.2391 33.4512ZM58.2615 37.8483C53.9252 39.3118 52.7403 40.4968 51.2767 44.833C49.8132 40.4968 48.6282 39.3118 44.292 37.8483C48.6282 36.3847 49.8132 35.1998 51.2767 30.8635C52.7403 35.1998 53.9252 36.3847 58.2615 37.8483Z" fill="#00E7F9"/>
<path d="M76.912 33.0958C76.4188 32.1414 75.7271 31.392 74.8303 30.8476C73.9336 30.3 72.896 30.0277 71.7015 30.0277C70.3244 30.0277 69.2995 30.2711 68.6206 30.7547C67.9449 31.2383 67.4805 31.7475 67.2371 32.2791H66.6799V30.2807H62.8592V45.5633H66.7439V37.7971C66.7439 36.3784 67.0706 35.2735 67.7271 34.4825C68.39 33.6915 69.3156 33.2975 70.5005 33.2975C71.5541 33.2975 72.3548 33.589 72.9248 34.1622C73.4885 34.7387 73.7671 35.597 73.7671 36.7499V45.5633H77.6518V36.4425C77.6518 35.1678 77.4084 34.0533 76.912 33.099V33.0958Z" fill="#00E7F9"/>
<path d="M81.841 30.2767V45.5593H85.7257V30.2767H81.841Z" fill="#00E7F9"/>
<path d="M100.88 35.9971C101.46 36.8137 101.751 37.6496 101.751 38.5047C101.751 39.3597 101.335 40.202 100.505 41.0315C99.9545 41.5823 99.3364 41.9602 98.6543 42.1652C97.9753 42.3669 97.2676 42.3573 96.5406 42.1395C95.8136 41.9218 95.1091 41.4734 94.4269 40.7913L94.2091 40.5735C93.527 39.8914 93.0754 39.1836 92.8577 38.4566C92.6431 37.7328 92.6367 37.0251 92.8384 36.3493C93.0402 35.664 93.4181 35.0459 93.9689 34.4951C94.523 33.941 95.0866 33.5823 95.6631 33.419C96.2332 33.2493 96.7968 33.2397 97.3476 33.387C97.9017 33.5311 98.4237 33.7905 98.9169 34.1684L101.005 30.9466C100.063 30.2933 99.0482 29.877 97.9561 29.7041C96.8705 29.5311 95.772 29.6336 94.6671 30.0083C93.5654 30.3862 92.4958 31.094 91.4646 32.1252C90.4205 33.1692 89.6935 34.3317 89.2772 35.6192C88.8609 36.9066 88.8225 38.2036 89.1587 39.5295C89.4886 40.8521 90.2444 42.1011 91.4197 43.2797L91.724 43.5839C92.9025 44.7624 94.1483 45.515 95.4774 45.8481C96.7968 46.1812 98.1002 46.1427 99.3877 45.7296C100.675 45.3165 101.838 44.5863 102.882 43.5423C103.926 42.4982 104.621 41.4414 104.995 40.3365C105.373 39.2348 105.476 38.1364 105.3 37.0475C105.13 35.9586 104.749 34.9338 104.169 33.9763L100.88 35.9971Z" fill="#00E7F9"/>
<path d="M86.6546 26.0405C84.8707 26.6426 84.3839 27.1294 83.7819 28.9132C83.1798 27.1294 82.693 26.6426 80.9092 26.0405C82.693 25.4385 83.1798 24.9517 83.7819 23.1678C84.3839 24.9517 84.8707 25.4385 86.6546 26.0405Z" fill="#00E7F9"/>
<path d="M41.3094 29.8601C39.9739 29.8665 38.6385 29.8697 37.2998 29.8729C36.6625 29.8729 35.8554 29.8729 35.2181 29.8761C35.516 29.7512 36.1245 29.4469 36.6112 28.7904C37.2998 27.8649 37.2774 26.8689 37.2614 26.5742C37.2549 26.1995 37.2517 25.8216 37.2453 25.4469C37.2389 24.8225 37.2293 24.198 37.2229 23.5767H36.8098C36.0956 23.5767 35.4743 23.7336 34.9491 24.0538C34.6225 24.2556 34.4111 24.4638 34.363 24.5118C33.7546 25.1331 33.5944 25.9113 33.4952 26.3885C33.4567 26.5807 33.4343 26.744 33.4215 26.8529C33.3446 27.2116 33.1077 28.0602 32.3583 28.7872C31.2598 29.8537 29.8859 29.8601 29.5977 29.8569V33.0594H33.4183V41.6871C33.4183 41.7351 33.4183 41.7735 33.4247 41.8152C33.4471 42.8048 33.7546 43.5926 34.3534 44.1979C34.9811 44.8256 35.801 45.1394 36.8066 45.1394H41.1204V41.9305H38.1613C37.62 41.9305 37.335 41.6582 37.3062 41.1234C37.2998 41.0882 37.2998 41.053 37.2998 41.0145V33.0626H41.4855C41.4279 31.9962 41.3702 30.9265 41.3126 29.8601H41.3094Z" fill="white"/>
<path d="M6.72155 6.97449C7.77839 6.57417 8.19152 6.04575 8.36766 5.62622C8.60464 5.06257 8.51818 4.42846 9.00176 4.07298C9.21633 3.92246 9.45652 3.88083 9.61665 3.87442H12.2684V0.671875H8.26197C7.5478 0.671875 6.92651 0.8288 6.40129 1.14905C6.10025 1.3284 5.90169 1.52055 5.81523 1.60702C5.23236 2.19309 5.03701 2.86882 4.96014 3.2115C4.96014 3.4741 4.9089 4.81597 3.81043 5.88562C2.66072 7.00331 1.23558 6.96808 0.992188 6.95527V10.1578H4.87688V22.2378H8.76157V10.1578H12.768V6.95527C10.7568 6.96168 8.73915 6.96808 6.72795 6.97129L6.72155 6.97449Z" fill="white"/>
<path d="M28.658 15.7554C29.2345 15.7682 29.8142 15.7842 30.3938 15.8002C30.9767 15.8163 31.5564 15.8323 32.1328 15.8483C32.1873 15.6689 32.2545 15.3583 32.2097 14.9772C32.1392 14.3911 31.8446 14.01 31.7869 13.9396C31.3194 13.3535 30.6596 13.235 30.4899 13.2094L28.6645 13.0877C28.6645 12.8731 28.658 12.6617 28.658 12.4472V12.4055C28.658 11.8835 28.6068 9.63214 26.8966 8.02766C25.3722 6.59612 23.4539 6.52246 22.1248 6.52246C20.7958 6.52246 19.6941 6.72102 18.7814 7.12134C17.8687 7.52166 17.1353 8.04687 16.5941 8.69059C16.0464 9.3407 15.6525 10.0517 15.4091 10.8363L18.9799 12.034C19.1241 11.3359 19.4347 10.7658 19.9055 10.3239C20.3827 9.88193 21.0968 9.66096 22.0608 9.66096C23.0248 9.66096 23.771 9.89474 24.2161 10.3591C24.6709 10.8171 24.8951 11.4128 24.8951 12.1269V12.9916H20.7029C19.5532 12.9916 18.5348 13.171 17.6381 13.5264C16.7414 13.8883 16.0464 14.4231 15.5404 15.1309C15.0408 15.8387 14.791 16.7194 14.791 17.7634C14.791 18.8074 15.0408 19.6977 15.5404 20.4311C16.0464 21.1581 16.7254 21.7154 17.5932 22.0933C18.4547 22.4712 19.4315 22.6633 20.5172 22.6633C21.6028 22.6633 22.4291 22.5064 23.0472 22.1989C23.6621 21.8915 24.1168 21.536 24.4019 21.1421C24.6933 20.7418 24.8726 20.4151 24.9591 20.1717H25.542V20.2005C25.542 20.8154 25.7918 21.3118 26.2818 21.6769C26.775 22.0484 27.4026 22.2342 28.1649 22.2342H30.7525V19.0252H29.5195C29.2537 19.0252 29.0488 18.9612 28.9046 18.8267C28.5972 18.5416 28.6548 18.1349 28.6613 18.1061V15.7522L28.658 15.7554ZM24.8983 16.1974C24.8983 17.203 24.5556 18.01 23.8638 18.6153C23.1785 19.2206 22.2882 19.5216 21.2025 19.5216C20.3827 19.5216 19.755 19.3487 19.3258 18.9996C18.8903 18.6505 18.6757 18.199 18.6757 17.6449C18.6757 17.0909 18.8839 16.6553 19.2906 16.3479C19.7037 16.0404 20.2674 15.8899 20.9879 15.8899H24.9015V16.1974H24.8983Z" fill="white"/>
<path d="M55.0154 9.12938C54.5511 8.31594 53.933 7.71066 53.1676 7.31034C52.3958 6.91002 51.5407 6.70506 50.5927 6.70506C49.4238 6.70506 48.5175 6.92603 47.8834 7.35517C47.2429 7.78431 46.7497 8.33195 46.4006 8.98847H45.8497C45.5007 8.30953 44.9947 7.7619 44.3381 7.33916C43.6816 6.91963 42.8105 6.70506 41.7217 6.70506C40.7161 6.70506 39.9026 6.89721 39.2845 7.28151C38.6696 7.65941 38.2277 8.10777 37.9587 8.61698H37.4078V6.95485H33.584V22.2374H37.4687V13.2094C37.4687 12.1622 37.7121 11.3552 38.1957 10.7915C38.6792 10.2279 39.3582 9.94283 40.2421 9.94283C41.0267 9.94283 41.632 10.151 42.0611 10.5769C42.4903 10.9965 42.7048 11.6306 42.7048 12.4728V22.2374H46.5895V13.2094C46.5895 12.1622 46.8329 11.3552 47.3165 10.7915C47.8001 10.2279 48.479 9.94283 49.3629 9.94283C50.1412 9.94283 50.7528 10.151 51.182 10.5769C51.6111 10.9965 51.8257 11.6306 51.8257 12.4728V22.2374H55.7104V12.191C55.7104 10.958 55.4766 9.93643 55.0186 9.12618L55.0154 9.12938Z" fill="white"/>
<path d="M74.8909 14.6057C74.8333 13.7794 74.718 13.0781 74.5419 12.4952L71.1247 13.5585C71.3393 14.1573 71.4386 14.8011 71.4098 15.4992C71.3809 16.1974 70.9806 16.9308 70.2056 17.6962C69.4562 18.452 68.5851 18.8587 67.5955 18.9163C66.6059 18.974 65.7284 18.6473 64.9566 17.9396L72.8221 10.0741L71.8869 9.13895C70.7821 8.03408 69.5971 7.27827 68.3225 6.88436C67.0543 6.48404 65.7893 6.436 64.5339 6.74985C63.2785 7.0637 62.1224 7.74905 61.0623 8.80909C59.9863 9.88515 59.2657 11.0573 58.9102 12.3319C58.5547 13.6001 58.574 14.8779 58.9583 16.1621C59.3426 17.4464 60.1048 18.6569 61.2321 19.7906L61.4947 20.0532C62.6284 21.1869 63.8421 21.9427 65.1328 22.3206C66.4298 22.6985 67.714 22.7049 68.9918 22.3431C70.2665 21.978 71.445 21.2574 72.5211 20.1877C73.5106 19.1982 74.1672 18.2278 74.4906 17.2766C74.8173 16.3287 74.9486 15.4384 74.8909 14.6089V14.6057ZM62.2377 13.5585C62.2953 12.745 62.6956 11.97 63.4354 11.227C64.1432 10.5193 64.9118 10.1285 65.7316 10.0645C66.5579 10.0004 67.3073 10.2502 67.9862 10.8139L62.9358 15.8707C62.4138 15.1437 62.18 14.3719 62.2377 13.5585Z" fill="white"/>
<path d="M59.2312 33.0338C58.5331 31.8585 57.5819 30.9714 56.365 30.3533C55.1544 29.7384 53.7901 29.4277 52.2657 29.4277C50.7413 29.4277 49.3834 29.7352 48.1664 30.3533C46.9559 30.9682 46.0047 31.8585 45.3066 33.0338C44.602 34.2027 44.2529 35.6087 44.2529 37.2548V37.748C44.2529 39.3877 44.602 40.7936 45.3066 41.9689C46.0047 43.1378 46.9559 44.0314 48.1664 44.6494C49.3802 45.2643 50.7477 45.575 52.2657 45.575C53.7837 45.575 55.1544 45.2675 56.365 44.6494C57.5787 44.0346 58.5331 43.1378 59.2312 41.9689C59.9294 40.7936 60.2785 39.3877 60.2785 37.748V37.2548C60.2785 35.6087 59.9294 34.2027 59.2312 33.0338ZM59.2537 37.4309C54.9174 38.8945 53.7325 40.0794 52.2689 44.4157C50.8053 40.0794 49.6204 38.8945 45.2842 37.4309C49.6204 35.9673 50.8053 34.7824 52.2689 30.4461C53.7325 34.7824 54.9174 35.9673 59.2537 37.4309Z" fill="white"/>
<path d="M77.9042 32.6783C77.411 31.7239 76.7193 30.9745 75.8225 30.4301C74.9258 29.8824 73.8882 29.6102 72.6936 29.6102C71.3166 29.6102 70.2917 29.8536 69.6128 30.3372C68.9371 30.8208 68.4727 31.33 68.2293 31.8616H67.6721V29.8632H63.8514V45.1458H67.7361V37.3796C67.7361 35.9609 68.0628 34.856 68.7193 34.065C69.3822 33.2739 70.3077 32.88 71.4927 32.88C72.5463 32.88 73.347 33.1714 73.917 33.7447C74.4807 34.3212 74.7593 35.1794 74.7593 36.3324V45.1458H78.644V36.0249C78.644 34.7503 78.4006 33.6358 77.9042 32.6815V32.6783Z" fill="white"/>
<path d="M82.8331 29.8595V45.1421H86.7178V29.8595H82.8331Z" fill="white"/>
<path d="M101.872 35.5798C102.452 36.3965 102.743 37.2323 102.743 38.0874C102.743 38.9425 102.327 39.7848 101.498 40.6142C100.947 41.1651 100.329 41.543 99.6464 41.7479C98.9675 41.9497 98.2597 41.9401 97.5328 41.7223C96.8058 41.5045 96.1012 41.0562 95.4191 40.374L95.2013 40.1563C94.5192 39.4741 94.0676 38.7664 93.8498 38.0394C93.6353 37.3156 93.6289 36.6078 93.8306 35.9321C94.0324 35.2468 94.4103 34.6287 94.9611 34.0778C95.5152 33.5238 96.0788 33.1651 96.6553 33.0018C97.2253 32.832 97.789 32.8224 98.3398 32.9698C98.8938 33.1139 99.4159 33.3733 99.9091 33.7512L101.997 30.5294C101.056 29.8761 100.04 29.4598 98.9483 29.2868C97.8626 29.1139 96.7642 29.2164 95.6593 29.5911C94.5576 29.969 93.4879 30.6767 92.4567 31.708C91.4127 32.752 90.6857 33.9145 90.2694 35.2019C89.8531 36.4894 89.8146 37.7864 90.1509 39.1122C90.4808 40.4349 91.2366 41.6839 92.4119 42.8624L92.7161 43.1667C93.8947 44.3452 95.1405 45.0978 96.4695 45.4309C97.789 45.7639 99.0924 45.7255 100.38 45.3124C101.667 44.8992 102.83 44.1691 103.874 43.125C104.918 42.081 105.613 41.0242 105.987 39.9193C106.365 38.8176 106.468 37.7191 106.292 36.6303C106.122 35.5414 105.741 34.5166 105.161 33.559L101.872 35.5798Z" fill="white"/>
<path d="M87.6467 25.6232C85.8629 26.2253 85.3761 26.712 84.7741 28.4959C84.172 26.712 83.6852 26.2253 81.9014 25.6232C83.6852 25.0211 84.172 24.5343 84.7741 22.7505C85.3761 24.5343 85.8629 25.0211 87.6467 25.6232Z" fill="white"/>
</svg>
